<svg xmlns="http://www.w3.org/2000/svg" viewBox="0 0 345.67 31.88"><title>Asset 1</title><path d="M0,.84H11.69q4.17,0,6.33,2a7.49,7.49,0,0,1,2.16,5.77,7.78,7.78,0,0,1-.82,3.78,6.92,6.92,0,0,1-2.5,2.55,9.42,9.42,0,0,1,2.86,1,6,6,0,0,1,3,3.78A10.11,10.11,0,0,1,23,22.27,9.14,9.14,0,0,1,22.29,26a7.63,7.63,0,0,1-2.09,2.76,8.77,8.77,0,0,1-3.26,1.68,15.2,15.2,0,0,1-4.33.56H0ZM7.85,12.69H9.29c2.46,0,3.68-1,3.68-2.92S11.75,6.85,9.29,6.85H7.85ZM7.85,25H9.57a8.87,8.87,0,0,0,4.25-.76,2.64,2.64,0,0,0,1.28-2.45,2.63,2.63,0,0,0-1.28-2.44,8.75,8.75,0,0,0-4.25-.76H7.85Z" style="fill:#4489FF"/><path d="M47.57.84V24.39H57V31H39.72V.84Z" style="fill:#4489FF"/><path d="M71.08,15.94A15.56,15.56,0,0,1,81,1.22a19.23,19.23,0,0,1,13.48,0,15.9,15.9,0,0,1,5.3,3.39,15.58,15.58,0,0,1,3.47,5.06,15.94,15.94,0,0,1,1.24,6.27,15.86,15.86,0,0,1-1.24,6.26,15.52,15.52,0,0,1-3.47,5.07,15.88,15.88,0,0,1-5.3,3.38,19.08,19.08,0,0,1-13.48,0,15.61,15.61,0,0,1-10-14.71Zm8.21,0A7.92,7.92,0,0,0,80,19.26a8.25,8.25,0,0,0,1.84,2.64,8.55,8.55,0,0,0,2.7,1.75,8.73,8.73,0,0,0,9.26-1.75,8.3,8.3,0,0,0,1.86-2.64,8.08,8.08,0,0,0,.68-3.32,8.16,8.16,0,0,0-.68-3.33A8.35,8.35,0,0,0,91,8.23a8.91,8.91,0,0,0-6.53,0A8.35,8.35,0,0,0,81.81,10,8.47,8.47,0,0,0,80,12.61,8,8,0,0,0,79.29,15.94Z" style="fill:#4489FF"/><path d="M143.24,10.93a8.4,8.4,0,0,0-6.73-3.32,8.17,8.17,0,0,0-3.26.64A8,8,0,0,0,130.67,10,8.25,8.25,0,0,0,129,12.61a9.12,9.12,0,0,0,0,6.61,8.12,8.12,0,0,0,4.31,4.41,8.09,8.09,0,0,0,3.2.64,9.08,9.08,0,0,0,6.77-3.21v9.29l-.8.28a22.84,22.84,0,0,1-3.36.95,16.41,16.41,0,0,1-3.09.3,15.86,15.86,0,0,1-11-4.51,16.44,16.44,0,0,1-3.5-5.08,15.42,15.42,0,0,1-1.33-6.43,15.44,15.44,0,0,1,1.31-6.39A15.94,15.94,0,0,1,136,0a16.92,16.92,0,0,1,3.55.38,21.47,21.47,0,0,1,3.66,1.18Z" style="fill:#4489FF"/><path d="M169.35,13.29,178.92.84h9.69l-12,14.3L189.73,31H179.56L169.35,17.94V31H161.5V.84h7.85Z" style="fill:#4489FF"/><path d="M213.08,31h-7.85V.84h12.49q5.09,0,7.79,2.64t2.7,7.45q0,4.82-2.7,7.45T217.72,21h-4.64Zm0-16.33h2.6c2.88,0,4.33-1.26,4.33-3.77s-1.45-3.76-4.33-3.76h-2.6Z" style="fill:#4489FF"/><path d="M261.21,25.79H250L248.2,31h-8.37L251.32.84h8.57L271.38,31H263Zm-2.08-6-3.52-10-3.53,10.05Z" style="fill:#4489FF"/><path d="M303.42,8.57A9.84,9.84,0,0,0,300.86,7a6.74,6.74,0,0,0-2.49-.5,4,4,0,0,0-2.48.72,2.25,2.25,0,0,0-1,1.88,1.86,1.86,0,0,0,.48,1.32,4.07,4.07,0,0,0,1.26.9,9.78,9.78,0,0,0,1.76.66q1,.28,1.95.6A12.15,12.15,0,0,1,306,16a8.43,8.43,0,0,1,1.78,5.58,10.93,10.93,0,0,1-.78,4.21,8.76,8.76,0,0,1-2.28,3.22A10.4,10.4,0,0,1,301,31.13a15.23,15.23,0,0,1-5,.75,18.18,18.18,0,0,1-10.61-3.41l3.36-6.33a13.61,13.61,0,0,0,3.49,2.33,8.29,8.29,0,0,0,3.4.76,4.08,4.08,0,0,0,2.86-.88,2.69,2.69,0,0,0,.94-2,2.73,2.73,0,0,0-.24-1.18,2.52,2.52,0,0,0-.8-.92,6.34,6.34,0,0,0-1.46-.78c-.6-.24-1.33-.51-2.18-.8-1-.32-2-.67-3-1.06a9.42,9.42,0,0,1-2.61-1.54,7.23,7.23,0,0,1-1.84-2.42,8.56,8.56,0,0,1-.7-3.71,10.75,10.75,0,0,1,.74-4.06,9.17,9.17,0,0,1,2.08-3.13,9.41,9.41,0,0,1,3.29-2A12.39,12.39,0,0,1,297.17,0a19.21,19.21,0,0,1,4.69.62,20.37,20.37,0,0,1,4.68,1.82Z" style="fill:#4489FF"/><path d="M341.3,8.57A9.68,9.68,0,0,0,338.74,7a6.69,6.69,0,0,0-2.48-.5,4,4,0,0,0-2.49.72,2.25,2.25,0,0,0-1,1.88,1.86,1.86,0,0,0,.48,1.32,4.07,4.07,0,0,0,1.26.9,9.89,9.89,0,0,0,1.77.66c.65.19,1.3.39,1.94.6A12.1,12.1,0,0,1,343.88,16a8.44,8.44,0,0,1,1.79,5.58,10.93,10.93,0,0,1-.78,4.21,8.79,8.79,0,0,1-2.29,3.22,10.4,10.4,0,0,1-3.68,2.08,15.19,15.19,0,0,1-4.95.75,18.21,18.21,0,0,1-10.61-3.41l3.37-6.33a13.4,13.4,0,0,0,3.48,2.33,8.32,8.32,0,0,0,3.4.76,4.12,4.12,0,0,0,2.87-.88,2.74,2.74,0,0,0,.7-3.19,2.62,2.62,0,0,0-.8-.92,6.43,6.43,0,0,0-1.47-.78c-.6-.24-1.32-.51-2.18-.8-1-.32-2-.67-3-1.06a9.36,9.36,0,0,1-2.6-1.54,7.26,7.26,0,0,1-1.85-2.42,8.71,8.71,0,0,1-.7-3.71,10.75,10.75,0,0,1,.74-4.06,9.06,9.06,0,0,1,2.09-3.13,9.28,9.28,0,0,1,3.28-2A12.39,12.39,0,0,1,335.05,0a19.21,19.21,0,0,1,4.69.62,20.62,20.62,0,0,1,4.69,1.82Z" style="fill:#4489FF"/></svg>