<svg xmlns="http://www.w3.org/2000/svg" width="118" height="136.253" viewBox="0 0 118 136.253">
  <g id="Group_333" data-name="Group 333" transform="translate(-489.953 -5236.974)">
    <path id="Path_339" data-name="Path 339" d="M116.216,66.192,83.252,47.161a2.194,2.194,0,0,0-2.2,0L48.09,66.192a2.2,2.2,0,0,0-1.1,1.9v38.063a2.188,2.188,0,0,0,1.1,1.9l32.965,19.032a2.183,2.183,0,0,0,2.2,0l32.965-19.032a2.186,2.186,0,0,0,1.1-1.9V68.1A2.187,2.187,0,0,0,116.216,66.192Zm-3.3,38.7L82.153,122.654,51.386,104.89V69.363L82.153,51.6,112.92,69.363Zm-5.494-15.724h2.2v13.186a1.1,1.1,0,0,1-.549.954L97.657,109.9l-1.1-1.9,10.867-6.272Zm0-16.632L96.559,66.26l1.1-1.9,11.417,6.593a1.1,1.1,0,0,1,.549.952V85.087h-2.2ZM82.7,55.723l11.417,6.593-1.1,1.9L82.153,57.944l-10.87,6.276-1.1-1.9L81.6,55.725A1.108,1.108,0,0,1,82.7,55.723ZM56.88,85.087h-2.2V71.9a1.1,1.1,0,0,1,.549-.952l11.419-6.593,1.1,1.9L56.88,72.535Zm0,16.634,10.87,6.272-1.1,1.9L55.232,103.3a1.1,1.1,0,0,1-.549-.954V89.164h2.2Zm36.14,8.311,1.1,1.9L82.7,118.529a1.111,1.111,0,0,1-.549.145,1.088,1.088,0,0,1-.549-.145l-11.419-6.593,1.1-1.9,10.87,6.276ZM79.955,30.386H75.578L82.153,19l6.575,11.386H84.351v10.59h-4.4ZM34.113,56.852l9.171,5.294-2.2,3.806-9.171-5.3-2.189,3.791L23.153,53.063H36.3Zm9.171,55.253L34.113,117.4,36.3,121.19H23.153L29.726,109.8l2.189,3.791,9.171-5.3Zm41.067,31.76h4.378l-6.575,11.388-6.575-11.388h4.378V133.277h4.4ZM134.578,109.8l6.575,11.388H128l2.189-3.791-9.169-5.294,2.2-3.806,9.169,5.3ZM121.025,62.148l9.169-5.294L128,53.063h13.151l-6.575,11.388-2.189-3.791-9.169,5.3Z" transform="translate(466.801 5217.974)" fill="#ffffff"/>
    <path id="Path_444" data-name="Path 444" d="M15-11.25a5.154,5.154,0,0,0-3.346-4.828,5.156,5.156,0,0,0-1.049-5.777A5.156,5.156,0,0,0,4.828-22.9,5.154,5.154,0,0,0,0-26.25,5.154,5.154,0,0,0-4.828-22.9a5.154,5.154,0,0,0-5.777,1.049,5.156,5.156,0,0,0-1.049,5.777A5.154,5.154,0,0,0-15-11.25a5.154,5.154,0,0,0,3.346,4.828A5.154,5.154,0,0,0-10.605-.645,5.152,5.152,0,0,0-4.828.4,5.162,5.162,0,0,0,0,3.75,5.154,5.154,0,0,0,4.828.4,5.151,5.151,0,0,0,10.605-.645a5.156,5.156,0,0,0,1.049-5.777A5.154,5.154,0,0,0,15-11.25ZM6.516-13.843-1.163-6.226a.644.644,0,0,1-.911,0L-6.51-10.7a.645.645,0,0,1,0-.912l1.525-1.513a.645.645,0,0,1,.912,0l2.47,2.49,5.7-5.65a.644.644,0,0,1,.911,0l1.513,1.525A.644.644,0,0,1,6.516-13.843Z" transform="translate(548.394 5316)" fill="#ffffff"/>
  </g>
</svg>
