<?xml version="1.0" encoding="utf-8"?>
<!-- Generator: Adobe Illustrator 24.0.1, SVG Export Plug-In . SVG Version: 6.00 Build 0)  -->
<svg version="1.1" id="Layer_1" xmlns="http://www.w3.org/2000/svg" xmlns:xlink="http://www.w3.org/1999/xlink" x="0px" y="0px"
	 viewBox="0 0 627.8 627.8" style="enable-background:new 0 0 627.8 627.8;" xml:space="preserve">
<style type="text/css">
	.st0{fill:#FFFFFF;}
</style>
<g>
	<path class="st0" d="M569.5,391.4c-1.3,0-2.6,0-3.9,0.3C566.9,391.4,568.2,391.4,569.5,391.4L569.5,391.4l0.3-74.2h-0.3
		c-1.3,0-2.2,0-3.5,0c1.3,0,2.2,0,3.5,0c30.8,0,56.2-25,56.2-56.2c0-30.8-25-56.2-56.2-56.2c-1.6,0-3.2,0-4.8,0.3
		c1.6,0,3.2-0.3,4.8-0.3h0.3V103.7c0-14.4-10.9-26.3-24.1-26.3h-272c-6.4,0-12.8,2.9-17.3,8l-83.8,94.4c-4.5,4.8-6.7,11.6-6.7,18.3
		v178.5H6.9c-0.6,0-1.6,0.3-1.9,1c-0.6,0.6-1,1.3-1,1.9v133.6c0,0.6,0.3,1.6,1,1.9c0.6,0.6,1.3,1,1.9,1h8v7.1c0,0.6,0.3,1.6,1,1.9
		c0.6,0.6,1.3,1,1.9,1h8v8c0,0.6,0.3,1.6,1,1.9c0.6,0.6,1.3,1,1.9,1h52.3c1.6,0,2.9-1.3,2.9-2.9c0-1.6-1.3-2.9-2.9-2.9H32v-8v-1.6
		v-27.6v-90.2h145.1h27.6h20.9c0,0.3,0.3,0.3,0.3,0.6c0,0.3,0.3,0.6,0.3,1.3c0.3,0.6,0.6,1.3,1,2.2c0.3,0.6,0.3,1,0.6,1.6
		c0.6,1,1.3,2.2,1.9,3.2c0.3,0.3,0.6,1,1,1.3c0.6,1,1.3,1.9,2.2,2.9c0.3,0.3,0.6,1,1,1.3c0.6,1,1.6,1.9,2.6,2.9
		c0.3,0.3,0.6,0.6,1,1.3c0,0,0,0,0,0.3c2.6,2.6,5.1,4.5,8,6.4c0,0,0.3,0,0.3,0.3c1.3,1,2.9,1.6,4.2,2.6c0.3,0.3,0.6,0.3,1,0.6
		c1,0.6,1.9,1,2.9,1.6c0.3,0,0.3,0.3,0.6,0.3c0,0,0.3,0,0.3,0.3c0,0,0,0,0.3,0c2.9,1,5.5,1.9,8.3,2.6c0,0.3,0,0.3,0,0.6
		c0,1.6,1.3,2.9,2.9,2.9s2.6-1.3,2.9-2.6c1.6,0,3.2,0.3,5.1,0.3c6.1,0,11.9-1,17.3-2.9c19.3,21.8,47.2,35.6,78.7,35.6
		c40.1,0,75.1-22.8,92.8-56.2l50.7,29.5c0,1.6-0.3,2.9-0.3,4.5c0,26.7,18.6,48.8,43.7,54.6l0,0V594c0,7.4-5.1,13.5-11.2,13.5H190
		c-6.1,0-11.2-6.1-11.2-13.5v-55.5h87.3c0.6,0,1.6-0.3,1.9-1c0.6-0.6,1-1.3,1-1.9v-83.8c0-1.6-1.3-2.9-2.9-2.9s-2.9,1.3-2.9,2.9
		v80.9H108.7c-1.6,0-2.9,1.3-2.9,2.9s1.3,2.9,2.9,2.9h57.2V594c0,14.4,10.9,26.3,24.1,26.3h355.8c13.2,0,24.1-11.9,24.1-26.3v-88.6
		h-0.3c-1.6,0-3.2,0-4.8-0.3c1.6,0,3.2,0.3,4.8,0.3c30.8,0,56.2-25,56.2-56.2C625.7,416.4,600.3,391.4,569.5,391.4z M616.1,261
		c0,25.7-20.9,46.6-46.6,46.6c-25.7,0-46.6-20.9-46.6-46.6s20.9-46.6,46.6-46.6C595.2,214.5,616.1,235.7,616.1,261z M563.4,316.9
		c-0.3,0-0.3,0-0.6,0C563.1,316.9,563.4,316.9,563.4,316.9z M563.1,205.5c-1.3,0-2.6,0.3-3.5,0.6
		C560.8,205.8,561.8,205.5,563.1,205.5z M266.1,94.1c1.9-2.2,4.8-3.5,7.7-3.5h6.4v86.4c0,1.3-1,2.2-2.2,2.2h-87.3L266.1,94.1z
		 M16.9,386.9L16.9,386.9c-0.3,0.3-0.6,0.3-1,0.6c-0.3,0.3-0.3,0.6-0.6,1l0,0c0,0.3-0.3,0.6-0.3,1v74.8v27.6v18.3H9.8V382.4h212.2
		c0,1,0,1.6,0,2.6c0,0.6,0,1.3,0,1.6h-10h-27.6H18.2C17.5,386.6,17.2,386.6,16.9,386.9z M204.4,397.5h-27.6H29.1c-0.3,0-0.6,0-1,0.3
		l-0.3,0.3c-0.3,0-0.3,0.3-0.6,0.3c-0.3,0.3-0.3,0.6-0.6,1l0,0c0,0.3-0.3,0.6-0.3,1v93.1v26.3h-5.1v-7.1v-21.2V464V392h163.4h27.6
		h10.6c0,0.3,0.3,1,0.3,1.3c0.3,1,0.3,1.9,0.6,3.2c0,0.3,0,0.6,0.3,1L204.4,397.5L204.4,397.5z M256.8,428c-3.2-1.3-6.1-2.9-8.7-4.5
		c-0.6-0.3-1-1-1.6-1.3c-0.6-0.6-1.3-1-2.2-1.6c-0.6-0.6-1.3-1.3-2.2-1.9c-0.3-0.3-1-1-1.3-1.3c-0.6-0.6-1.3-1.3-1.9-1.9
		c-0.3-0.6-1-1-1.3-1.6c-0.6-0.6-1-1.3-1.3-1.9c-0.6-0.6-1-1.6-1.6-2.2c-0.3-0.6-0.6-1-1-1.6c-0.6-1-1-1.9-1.6-2.9
		c-0.3-0.3-0.3-1-0.6-1.3c-0.6-1.3-1-2.2-1.3-3.5c0-0.3-0.3-0.6-0.3-1c-0.3-1.3-1-2.9-1.3-4.2c0-0.3,0-0.3,0-0.6
		c-0.3-1.6-0.6-3.2-0.6-5.1c0-1.6-0.3-2.9-0.3-4.5c0,0,0,0,0-0.3c0-1.6,0-3.2,0.3-4.5c0-1.3,0.3-2.6,0.6-3.9c0-0.6,0-1.6-0.3-2.2
		s-1-1-1.9-1.3c-1.6-0.3-3.2,0.6-3.2,2.2c0,0.6,0,1-0.3,1.6h-43.7V198.1c0-2.2,0.6-4.5,1.3-6.4H278c8.3,0,15.1-6.7,15.1-15.1V90.2
		h252.7c6.1,0,11.2,6.1,11.2,13.5v102.8l0,0c-25,5.8-43.7,27.9-43.7,54.6c0,6.7,1.3,13.5,3.5,19.6l-56.5,30.8
		c-18.3-30.8-51.7-51.4-90.2-51.4c-46.6,0-86.4,30.8-99.9,72.9c-6.1,0.3-11.9,1.9-17.3,4.2c-6.4,2.9-12.2,7.1-17,12.2
		c-0.6,0.6-0.6,1.3-0.6,1.9c0,1,0.3,1.6,1,2.2c1,1,2.9,1,4.2,0c8.7-9.3,21.2-14.8,34-14.8c12.5,0,24.1,4.8,32.8,13.5
		c8.7,8.7,13.5,20.6,13.5,32.8c0,12.2-4.8,24.1-13.5,32.8c-8.7,8.7-20.2,13.5-32.8,13.5C268,431.2,262.2,429.9,256.8,428z
		 M370.1,459.8c-27.3,0-52-11.6-69.4-30.2c3.9-2.2,7.1-4.8,10.3-8c4.8-4.8,8.7-10.3,11.2-16.7s4.2-13.2,4.2-20.2
		c0-7.1-1.3-13.8-4.2-20.2c-2.6-6.1-6.4-11.9-11.2-16.7c-4.8-4.8-10.3-8.7-16.7-11.2c-4.5-1.9-9-3.2-13.8-3.5
		c13.2-36.9,48.2-63.6,89.6-63.6c52.3,0,95,42.7,95,95S422.4,459.8,370.1,459.8z M467.1,404.6c5.1-12.2,8-25.7,8-39.8
		c0-16.1-3.5-31.1-10-44.6l56.2-30.5c7.7,13.2,20.6,22.8,36,26.3V393c-20.2,4.5-36.3,20.2-41.4,39.8L467.1,404.6z M563.7,391.7
		c-0.6,0-1,0-1.6,0.3C562.4,392,563.1,391.7,563.7,391.7z M559.6,502.8c1.3,0.3,2.2,0.3,3.5,0.6
		C561.8,503.1,560.8,502.8,559.6,502.8z M569.5,494.1c-25.7,0-46.6-20.9-46.6-46.6s20.9-46.6,46.6-46.6c25.7,0,46.6,20.9,46.6,46.6
		S595.2,494.1,569.5,494.1z"/>
	<path class="st0" d="M45.2,456.2c1.6,0,2.9-1.3,2.9-2.9s-1.3-2.9-2.9-2.9c-1.6,0-2.9,1.3-2.9,2.9C42.3,455,43.6,456.2,45.2,456.2z"
		/>
	<path class="st0" d="M42.3,495.4c0,0.6,0.3,1.6,1,1.9c0.6,0.6,1.3,1,1.9,1c4.5,0,9,1.9,12.2,5.1s5.1,7.7,5.1,12.2
		c0,0.6,0.3,1.6,1,1.9c0.6,0.6,1.3,1,1.9,1h164.7c0.6,0,1.6-0.3,1.9-1c0.6-0.6,1-1.3,1-1.9c0-4.5,1.9-9,5.1-12.2h0.6v-0.6
		c0.3-0.6,0.6-1.3,0.6-1.9c0-0.6-0.3-1.3-0.6-1.9c-0.6-0.6-1.3-1-1.9-1s-1.6,0.3-1.9,0.6c-3.9,3.9-6.4,8.7-7.1,13.8H68
		c-0.6-5.1-2.9-10-6.7-13.5c-3.5-3.5-8.3-6.1-13.5-6.7v-25.7c0-1.6-1.3-2.9-2.9-2.9c-1.6,0-2.9,1.3-2.9,2.9v28.9H42.3z"/>
	<path class="st0" d="M246.2,493.8c-0.6,0.6-0.6,1.3-0.6,2.2c0,1.6,1.3,2.6,2.9,2.6h0.3c1.6,0,2.9-1.6,2.6-3.2
		c0-1.6-1.6-2.6-3.2-2.6C247.4,492.9,246.8,493.2,246.2,493.8z"/>
	<path class="st0" d="M253.2,483.5v-44.6c0-0.6-0.3-1.6-1-1.9c-0.6-0.6-1.3-1-1.9-1c-4.5,0-9-1.9-12.2-5.1
		c-3.2-3.2-5.1-7.7-5.1-12.2c0-0.6-0.3-1.6-1-1.9c-0.6-0.3-1.3-1-1.9-1H65.4c-0.6,0-1.6,0.3-1.9,1c-0.6,0.6-1,1.3-1,1.9
		c0,4.5-1.9,9-5.1,12.2c-3.2,3.2-7.7,5.1-12.2,5.1c-0.6,0-1.6,0.3-1.9,1c-0.6,0.6-1,1.3-1,1.9v0.6c0,1.6,1.3,2.9,2.9,2.9
		c0.6,0,1.6-0.3,1.9-1c5.5-0.3,10.3-2.9,14.1-6.4c3.9-3.5,6.1-8.3,6.7-13.8h159.3c0.6,5.1,2.9,10,6.7,13.5c3.5,3.5,8.3,6.1,13.5,6.7
		v42.1c0,1.6,1.3,2.9,2.9,2.9S253.2,485.1,253.2,483.5z"/>
	<path class="st0" d="M129,448.2c-5.1,5.1-7.7,11.9-7.7,18.9s2.9,13.8,7.7,18.9c5.1,5.1,11.9,7.7,18.9,7.7c7.1,0,13.8-2.9,18.9-7.7
		c5.1-5.1,7.7-11.9,7.7-18.9s-2.9-13.8-7.7-18.9c-5.1-5.1-11.9-7.7-18.9-7.7C140.5,440.5,133.8,443.4,129,448.2z M168.5,467.2
		c0,11.6-9.3,20.9-20.9,20.9c-11.6,0-20.9-9.3-20.9-20.9s9.3-20.9,20.9-20.9C159.1,446.3,168.5,455.6,168.5,467.2z"/>
	<path class="st0" d="M94.9,531.1c-1.6,0-2.9,1.3-2.9,2.9s1.3,2.9,2.9,2.9s2.9-1.3,2.9-2.9S96.5,531.1,94.9,531.1z"/>
	<path class="st0" d="M231.4,359.9c-1.3-0.6-3.2,0-3.9,1.3c-0.3,0.6-0.3,1.6-0.3,2.2c0.3,0.6,0.6,1.3,1.3,1.6c0.3,0.3,1,0.3,1.3,0.3
		c1,0,1.9-0.6,2.6-1.6c0.3-0.6,0.3-1.6,0.3-2.2C232.7,360.9,232,360.6,231.4,359.9z"/>
	<path class="st0" d="M296.9,383.7h-10v-24.1c0-0.6-0.3-1.6-1-1.9s-1.3-1-1.9-1h-20.2c-0.6,0-1.6,0.3-1.9,1c-0.6,0.6-1,1.3-1,1.9
		v24.1h-10c-1.3,0-2.2,0.6-2.6,1.6c-0.3,1-0.3,2.2,0.6,3.2l22.5,23.8c0.6,0.6,1.3,1,1.9,1l0,0c0.6,0,1.6-0.3,1.9-1l23.1-23.8
		c0.6-1,1-1.9,0.6-3.2C299.1,384.3,298.2,383.7,296.9,383.7z M273.8,406.2L258,389.5h6.1c0.6,0,1.6-0.3,1.9-1s1-1.3,1-1.9v-24.1
		h14.4v24.1c0,0.6,0.3,1.6,1,1.9c0.6,0.6,1.3,1,1.9,1h6.1L273.8,406.2z"/>
	<path class="st0" d="M63.1,355.7l0.3,0.3c0.3,0,0.3,0.3,0.6,0.3l0,0c0.3,0,0.6,0.3,1,0.3c0.3,0,0.6,0,1-0.3l0,0l0.3-0.3
		c0.3,0,0.3-0.3,0.6-0.3l8-8c0.6-0.6,1-1.3,1-1.9c0-0.6-0.3-1.6-1-1.9c-1-1-2.9-1.3-4.2,0l-3.2,3.2v-38.2c0-1.6-1.3-2.9-2.9-2.9
		c-1.6,0-2.9,1.3-2.9,2.9v38.2l-3.2-3.2c-1-1-2.9-1-4.2,0c-0.6,0.6-1,1.3-1,1.9c0,0.6,0.3,1.6,1,1.9L63.1,355.7z"/>
	<path class="st0" d="M97.5,364.1L97.5,364.1L97.5,364.1L97.5,364.1C97.8,364.1,97.8,364.1,97.5,364.1L97.5,364.1l0.3,0.3
		c0.3,0,0.3,0.3,0.6,0.3l0,0c0.3,0,0.6,0.3,1,0.3c0.3,0,0.6,0,1-0.3c0,0,0.3,0,0.3-0.3c0.3,0,0.3-0.3,0.6-0.3l0,0l0,0l0,0l8-7.7
		c0.6-0.6,1-1.3,1-1.9c0-0.6-0.3-1.6-1-1.9c-0.6-0.6-1.3-1-1.9-1s-1.6,0.3-1.9,0.6l-3.2,3.2v-68.1c0-1.6-1.3-2.9-2.9-2.9
		c-1.6,0-2.9,1.3-2.9,2.9v68.1l-3.2-3.2c-0.6-0.6-1.3-0.6-1.9-0.6c-0.6,0-1.6,0.3-1.9,1c-0.6,0.6-1,1.3-1,1.9c0,0.6,0.3,1.6,1,1.9
		L97.5,364.1z"/>
</g>
</svg>
