<?xml version="1.0" encoding="utf-8"?>
<!-- Generator: Adobe Illustrator 23.0.4, SVG Export Plug-In . SVG Version: 6.00 Build 0)  -->
<svg version="1.1" id="livetype" xmlns="http://www.w3.org/2000/svg" xmlns:xlink="http://www.w3.org/1999/xlink" x="0px" y="0px"
	 viewBox="0 0 119.7 40" style="enable-background:new 0 0 119.7 40;" xml:space="preserve">
<style type="text/css">
	.st0{fill:#FFFFFF;}
</style>
<title>Download_on_the_App_Store_Badge_US-UK_RGB_blk_4SVG_092917</title>
<g>
	<polygon class="st0" points="39.9,20.1 38.1,25.6 41.8,25.6 40,20.1 	"/>
	<path class="st0" d="M82.6,12.4c0-1-0.4-1.5-1.2-1.5c-0.8,0-1.2,0.6-1.2,1.5c0,1,0.4,1.6,1.2,1.6C82.1,14,82.6,13.4,82.6,12.4z"/>
	<path class="st0" d="M67.3,13.4c0,0.4,0.4,0.6,0.8,0.6c0.6,0.1,1.1-0.4,1.2-0.9c0,0,0,0,0,0v-0.4l-1.1,0.1
		C67.6,12.8,67.3,13,67.3,13.4z"/>
	<path class="st0" d="M63.3,10.9c-0.8,0-1.2,0.6-1.2,1.5c0,1,0.4,1.6,1.2,1.6c0.8,0,1.2-0.6,1.2-1.6C64.6,11.5,64.1,10.9,63.3,10.9z
		"/>
	<path class="st0" d="M39.7,12.1c0-0.1,0-0.3,0-0.4c0.1-1-0.6-2-1.6-2.1c-0.1,0-0.2,0-0.4,0h-1.1v4.3h1.1
		C38.8,13.9,39.6,13.1,39.7,12.1z"/>
	<path class="st0" d="M60.8,22.9c-1.4,0-2.4,1.2-2.4,3c0,1.8,1,3,2.4,3c1.4,0,2.4-1.2,2.4-3C63.2,24.1,62.3,22.9,60.8,22.9z"/>
	<path class="st0" d="M90.4,22.9C88.9,22.9,88,24,88,26c0,2,0.9,3.1,2.4,3.1s2.4-1.1,2.4-3.1h0C92.8,24,91.9,22.9,90.4,22.9z"/>
	<path class="st0" d="M119.7,8.4c0-0.3,0-0.6,0-0.9c0-0.7-0.1-1.3-0.2-2c-0.1-0.7-0.3-1.3-0.6-1.9c-0.6-1.2-1.6-2.2-2.8-2.8
		c-0.6-0.3-1.2-0.5-1.9-0.6c-0.7-0.1-1.3-0.2-2-0.2c-0.3,0-0.6,0-0.9,0c-0.4,0-0.7,0-1.1,0v0H9.5C9.2,0,8.8,0,8.4,0
		C8.1,0,7.8,0,7.5,0c-0.7,0-1.3,0.1-2,0.2C4.9,0.3,4.2,0.5,3.6,0.8C3,1.1,2.5,1.5,2,2C1.5,2.5,1.1,3,0.8,3.6
		C0.5,4.2,0.3,4.9,0.2,5.5C0.1,6.2,0,6.9,0,7.5c0,0.3,0,0.6,0,0.9v23.1c0,0.3,0,0.6,0,0.9c0,0.7,0.1,1.3,0.2,2
		c0.1,0.7,0.3,1.3,0.6,1.9C1.1,37,1.5,37.5,2,38c0.5,0.5,1,0.9,1.6,1.2c0.6,0.3,1.2,0.5,1.9,0.6c0.7,0.1,1.3,0.2,2,0.2
		c0.3,0,0.6,0,0.9,0c0.4,0,0.7,0,1.1,0h100.6c0.4,0,0.7,0,1.1,0c0.3,0,0.6,0,0.9,0c0.7,0,1.3-0.1,2-0.2c0.7-0.1,1.3-0.3,1.9-0.6
		c0.6-0.3,1.1-0.7,1.6-1.2c0.5-0.5,0.9-1,1.2-1.6c0.3-0.6,0.5-1.2,0.6-1.9c0.1-0.7,0.2-1.3,0.2-2c0-0.3,0-0.6,0-0.9
		c0-0.4,0-0.7,0-1.1V9.5C119.7,9.2,119.7,8.8,119.7,8.4z M102.5,10.1c0.1,0,0.2,0,0.3,0c1.3,0,2,0.9,2,2.3v0.3h-3.2v0
		c-0.1,0.7,0.4,1.2,1.1,1.3c0,0,0.1,0,0.1,0c0.4,0.1,0.9-0.2,1.1-0.5l0.9,0c-0.2,0.8-1.1,1.4-2,1.3c-1.1,0-2.1-0.9-2.1-2
		c0-0.1,0-0.2,0-0.3C100.6,11.3,101.4,10.3,102.5,10.1z M91.9,10.2h0.7V9.1h0.9v1.1h1V11h-1v2.3c0,0.5,0.2,0.7,0.6,0.7
		c0.1,0,0.2,0,0.3,0v0.7c-0.2,0-0.3,0-0.5,0c-1,0-1.4-0.3-1.4-1.2V11h-0.7V10.2z M73.2,10.1c0.6,0,1.1,0.3,1.4,0.8h0.1V8.4h0.9v6.3
		h-0.9V14h-0.1c-0.3,0.5-0.8,0.8-1.4,0.8c-1.1,0-1.9-0.9-1.9-2.3C71.3,11,72.1,10.1,73.2,10.1z M59.1,8.4H60v6.3h-0.9V8.4z
		 M35.7,8.7h2.2c1.5-0.1,2.7,1,2.8,2.4c0,0.2,0,0.3,0,0.5c0,1.9-1,3-2.8,3h-2.2V8.7z M19.9,10.4c0.8-0.9,2-1.5,3.2-1.7
		c0.1,1.3-0.3,2.5-1.1,3.5c-0.8,1-2,1.5-3.2,1.5C18.7,12.5,19.1,11.3,19.9,10.4z M26.2,27.8c-0.9,1.3-1.8,2.6-3.3,2.7
		c-1.4,0-1.9-0.9-3.6-0.9c-1.7,0-2.2,0.8-3.6,0.9c-1.4,0.1-2.5-1.4-3.4-2.8c-1.9-2.7-3.3-7.6-1.4-11c0.9-1.6,2.6-2.7,4.5-2.7
		c1.4,0,2.7,1,3.6,1c0.9,0,2.5-1.2,4.2-1c1.6,0,3.1,0.8,4,2.2c-1.4,0.9-2.3,2.5-2.4,4.2c0,1.9,1.2,3.7,2.9,4.4
		C27.3,25.8,26.8,26.8,26.2,27.8z M43.4,30.5l-1.1-3.4h-4.7l-1.1,3.4h-2l4.5-12.4H41l4.5,12.4H43.4z M45.9,12.4
		c0.1,1.2-0.7,2.2-1.9,2.3s-2.2-0.7-2.3-1.9c0-0.1,0-0.3,0-0.4c-0.1-1.2,0.7-2.2,1.9-2.3c1.2-0.1,2.2,0.7,2.3,1.9
		C45.9,12.2,45.9,12.3,45.9,12.4z M47.5,10.2l0.8,3.4h0.1l0.9-3.4h0.9l0.9,3.4h0.1l0.8-3.4h0.9l-1.2,4.5h-0.9l-0.9-3.3h-0.1
		l-0.9,3.3h-0.9l-1.2-4.5H47.5z M51.4,30.6c-1.2,0.1-2.3-0.6-2.8-1.6h0v4.5h-1.9v-12h1.8v1.5h0c0.6-1,1.7-1.6,2.9-1.6
		c2.3,0,3.8,1.8,3.8,4.6C55.2,28.8,53.7,30.6,51.4,30.6z M55.8,10.9c-0.6,0-1.1,0.4-1.1,1c0,0.1,0,0.1,0,0.2v2.6h-0.9v-4.5h0.9v0.7
		h0.1c0.2-0.5,0.8-0.8,1.3-0.8c0.8-0.1,1.5,0.5,1.6,1.4c0,0.1,0,0.2,0,0.3v2.9h-0.9V12C56.8,11.3,56.5,10.9,55.8,10.9z M61.3,30.6
		c-1.2,0.1-2.3-0.6-2.8-1.6h0v4.5h-1.9v-12h1.8v1.5h0c0.6-1,1.7-1.6,2.9-1.6c2.3,0,3.8,1.8,3.8,4.6C65.1,28.8,63.6,30.6,61.3,30.6z
		 M65.5,12.4c0.1,1.2-0.7,2.2-1.9,2.3c-1.2,0.1-2.2-0.7-2.3-1.9c0-0.1,0-0.3,0-0.4c-0.1-1.2,0.7-2.2,1.9-2.3s2.2,0.7,2.3,1.9
		C65.5,12.2,65.5,12.3,65.5,12.4z M69.3,14.1c-0.3,0.5-0.8,0.7-1.4,0.7c-0.7,0.1-1.4-0.5-1.5-1.2c0,0,0-0.1,0-0.1
		c0-0.8,0.6-1.3,1.7-1.3l1.2-0.1v-0.4c0-0.5-0.3-0.7-0.9-0.7c-0.5,0-0.8,0.2-0.9,0.5h-0.9c0.1-0.8,0.8-1.3,1.8-1.3
		c1.1,0,1.8,0.6,1.8,1.5v3.1h-0.9L69.3,14.1L69.3,14.1z M74.5,30.7c-2.8,0-4.6-1.4-4.7-3.7l1.9,0c0.1,1.2,1.3,2,3,2
		c1.6,0,2.7-0.8,2.7-1.9c0-1-0.7-1.5-2.3-1.9l-1.6-0.4c-2.3-0.6-3.3-1.6-3.3-3.3c0-2.1,1.9-3.6,4.5-3.6c2.6,0,4.4,1.5,4.5,3.6h-1.9
		c-0.1-1.2-1.1-2-2.6-2s-2.5,0.8-2.5,1.9c0,0.9,0.7,1.4,2.3,1.8l1.4,0.3c2.5,0.6,3.6,1.6,3.6,3.4C79.3,29.2,77.5,30.7,74.5,30.7z
		 M79.2,12.9c0-0.1,0-0.3,0-0.4c-0.1-1.2,0.7-2.2,1.9-2.3c1.2-0.1,2.2,0.7,2.3,1.9c0,0.1,0,0.3,0,0.4c0.1,1.2-0.7,2.2-1.9,2.3
		C80.4,14.9,79.3,14,79.2,12.9z M85.1,22.9h-1.7v5c0,0.8,0.3,1.1,1.1,1.1c0.2,0,0.4,0,0.6,0v1.5c-0.3,0.1-0.7,0.1-1,0.1
		c-1.8,0-2.5-0.7-2.5-2.4v-5.2h-1.3v-1.5h1.3v-2.1h1.9v2.1h1.7V22.9z M85.6,12.1v2.6h-0.9v-4.5h0.9v0.7h0.1c0.2-0.5,0.8-0.8,1.3-0.8
		c0.8-0.1,1.5,0.5,1.6,1.4c0,0.1,0,0.2,0,0.3v2.9h-0.9V12c0-0.7-0.3-1.1-1-1.1c-0.6,0-1.1,0.4-1.1,1C85.6,12,85.6,12,85.6,12.1z
		 M90.4,30.6c-2.6,0-4.3-1.8-4.3-4.6c0-2.8,1.7-4.6,4.3-4.6c2.6,0,4.3,1.8,4.3,4.6C94.7,28.8,93,30.6,90.4,30.6z M95.7,8.4h0.9v2.5
		h0.1c0.2-0.5,0.8-0.9,1.4-0.8c0.8,0,1.5,0.6,1.6,1.4c0,0.1,0,0.2,0,0.3v2.9h-0.9V12c0-0.7-0.3-1.1-1-1.1c-0.6,0-1.1,0.4-1.1,1
		c0,0.1,0,0.1,0,0.2v2.6h-0.9L95.7,8.4z M100.8,23.2c-0.3-0.1-0.6-0.1-0.8-0.1c-1,0-1.9,0.8-1.9,1.8c0,0.1,0,0.2,0,0.3v5.4h-1.9
		v-9.1H98V23h0c0.2-1,1.2-1.7,2.2-1.6c0.2,0,0.4,0,0.6,0.1V23.2z M109.5,26.4h-6.4v0.1c-0.1,1.3,0.8,2.4,2.1,2.6c0.1,0,0.2,0,0.3,0
		c0.9,0.1,1.8-0.4,2.1-1.3h1.8c-0.2,1.6-1.9,2.8-3.9,2.8c-2.6,0-4.3-1.8-4.3-4.6c0-2.8,1.6-4.7,4.2-4.7c2.5,0,4.1,1.7,4.1,4.5V26.4z
		"/>
	<path class="st0" d="M105.6,22.8c-0.1,0-0.1,0-0.2,0c-1.3,0-2.3,1-2.3,2.3c0,0,0,0,0,0h4.5C107.7,23.9,106.8,22.9,105.6,22.8z"/>
	<path class="st0" d="M102.9,10.9c0,0-0.1,0-0.1,0c-0.6,0-1.2,0.5-1.2,1.1c0,0,0,0,0,0h2.3C104,11.4,103.5,10.9,102.9,10.9z"/>
	<path class="st0" d="M43.8,10.9c-0.8,0-1.2,0.6-1.2,1.5c0,1,0.4,1.6,1.2,1.6c0.8,0,1.2-0.6,1.2-1.6C45,11.5,44.6,10.9,43.8,10.9z"
		/>
	<path class="st0" d="M73.5,14c0.7,0,1.2-0.6,1.2-1.5c0-0.9-0.5-1.5-1.2-1.5c-0.7,0-1.2,0.6-1.2,1.5h0C72.3,13.4,72.7,14,73.5,14z"
		/>
	<path class="st0" d="M50.9,22.9c-1.4,0-2.4,1.2-2.4,3c0,1.8,1,3,2.4,3c1.4,0,2.4-1.2,2.4-3C53.2,24.1,52.3,22.9,50.9,22.9z"/>
</g>
</svg>
