<?xml version="1.0" encoding="utf-8"?>
<!-- Generator: Adobe Illustrator 22.0.1, SVG Export Plug-In . SVG Version: 6.00 Build 0)  -->
<svg version="1.1" id="Layer_1" xmlns="http://www.w3.org/2000/svg" xmlns:xlink="http://www.w3.org/1999/xlink" x="0px" y="0px"
	 viewBox="0 0 177 177.2" style="enable-background:new 0 0 177 177.2;" xml:space="preserve">
<style type="text/css">
	.st0{fill:#488cff;}
</style>
<g>
	<path class="st0" d="M132.1,55.6l4.6-4.6l1,1c0.6,0.6,1.7,1,2.5,1c1,0,1.9-0.4,2.5-1l2.1-2.1c0.6-0.6,1-1.7,1-2.5
		c0-1-0.4-1.9-1-2.5l-4.4-4.4c-1.5-1.5-3.8-1.5-5.2,0l-2.1,2.1c-0.6,0.6-1,1.7-1,2.5c0,1,0.4,1.9,1,2.5l1,1l-4.6,4.6
		c-10.4-9.8-24.4-16.1-39.6-16.5v-5.8h8.1c0.8,0,1.7-0.6,1.7-1.7v-7.5c0-0.8-0.6-1.7-1.7-1.7H78.9c-0.8,0-1.7,0.6-1.7,1.7v7.7
		c0,0.8,0.6,1.7,1.7,1.7H87V37c-15.4,0.4-29.2,6.7-39.6,16.5l-4.6-4.6l1-1c1.5-1.5,1.5-3.8,0-5.2l-2.1-2.1c-1.5-1.5-3.8-1.5-5.2,0
		l-4.4,4.4c-1.5,1.5-1.5,3.8,0,5.2l2.1,2.1c0.6,0.6,1.7,1,2.5,1s1.9-0.4,2.5-1l1-1l4.6,4.6C34.7,66.6,28.4,81,28.4,97.1
		c0,33.2,26.9,60.1,60.1,60.1s60.1-26.9,60.1-60.1C148.6,80.8,142.3,66.4,132.1,55.6z M135.7,44.7l2.1-2.1c0.2-0.2,0.2-0.2,0.4-0.2
		c0.2,0,0.2,0,0.4,0.2L143,47c0.2,0.2,0.2,0.2,0.2,0.4c0,0,0,0.2-0.2,0.4l-2.1,2.1c-0.2,0.2-0.4,0.2-0.8,0l-2.1-2.1l0,0l0,0
		l-2.1-2.1c-0.4-0.4-0.4-0.6-0.4-0.8C135.4,44.9,135.4,44.7,135.7,44.7z M80.4,23.2h16.1v4.6H80.4V23.2z M36.3,49.7l-2.1-2.1
		c-0.2-0.2-0.2-0.6,0-0.8l4.4-4.4c0.2-0.2,0.2-0.2,0.4-0.2s0.2,0,0.4,0.2l2.1,2.1c0.2,0.2,0.2,0.6,0,0.8l-4.4,4.4
		C36.8,49.9,36.5,49.9,36.3,49.7z M88.5,153.6c-31.3,0-57-25.5-57-57c0-31.3,25.5-57,57-57c15.6,0,29.8,6.5,40.3,16.7l0,0l0,0
		c10.2,10.2,16.7,24.4,16.7,40.3C145.5,128.2,119.8,153.6,88.5,153.6z"/>
	<path class="st0" d="M61.8,70.2c-7.1,7.1-11.1,16.7-11.1,26.7c0,5.2,1,10.2,3.1,15l2.9-1.3c-1.9-4.4-2.9-9-2.9-13.8
		c0-9.2,3.5-17.9,10.2-24.6c2.1-2.1,4.6-4,7.1-5.4l-1.7-2.7C66.8,65.8,64.1,67.7,61.8,70.2z"/>
	
		<rect x="74.7" y="46.6" transform="matrix(0.9659 -0.2588 0.2588 0.9659 -10.5665 21.4764)" class="st0" width="3.1" height="8.6"/>
	<rect x="63.3" y="51.5" transform="matrix(0.866 -0.5 0.5 0.866 -19.1803 39.8887)" class="st0" width="3.1" height="8.6"/>
	<rect x="53.5" y="59" transform="matrix(0.707 -0.7072 0.7072 0.707 -28.6029 57.4684)" class="st0" width="3.1" height="8.6"/>
	<rect x="45.9" y="69" transform="matrix(0.5 -0.866 0.866 0.5 -39.6988 77.6956)" class="st0" width="3.1" height="8.6"/>
	
		<rect x="41.2" y="80.2" transform="matrix(0.2588 -0.9659 0.9659 0.2588 -49.9243 103.8747)" class="st0" width="3.1" height="8.6"/>
	<rect x="36.8" y="95.2" class="st0" width="8.6" height="3.1"/>
	
		<rect x="38.4" y="107.5" transform="matrix(0.9659 -0.2588 0.2588 0.9659 -26.7697 14.7644)" class="st0" width="8.6" height="3.1"/>
	<rect x="43.2" y="118.9" transform="matrix(0.866 -0.5 0.5 0.866 -53.8829 39.8842)" class="st0" width="8.6" height="3.1"/>
	
		<rect x="50.6" y="128.8" transform="matrix(0.7071 -0.7071 0.7071 0.7071 -76.1199 76.9692)" class="st0" width="8.6" height="3.1"/>
	
		<rect x="60.5" y="136.2" transform="matrix(0.5001 -0.866 0.866 0.5001 -86.9367 124.9876)" class="st0" width="8.6" height="3.1"/>
	
		<rect x="71.9" y="141.1" transform="matrix(0.259 -0.9659 0.9659 0.259 -81.3942 179.2543)" class="st0" width="8.6" height="3.1"/>
	<rect x="87" y="140.1" class="st0" width="3.1" height="8.6"/>
	
		<rect x="99.2" y="138.3" transform="matrix(0.9659 -0.2588 0.2588 0.9659 -33.4646 30.9273)" class="st0" width="3.1" height="8.6"/>
	<rect x="110.6" y="133.8" transform="matrix(0.866 -0.5 0.5 0.866 -53.9828 74.5953)" class="st0" width="3.1" height="8.6"/>
	
		<rect x="120.4" y="126.1" transform="matrix(0.7071 -0.7071 0.7071 0.7071 -56.4427 124.4045)" class="st0" width="3.1" height="8.6"/>
	<rect x="128" y="116.3" transform="matrix(0.5 -0.866 0.866 0.5 -39.6235 172.4334)" class="st0" width="3.1" height="8.6"/>
	
		<rect x="132.6" y="104.8" transform="matrix(0.2588 -0.9659 0.9659 0.2588 -5.9322 210.505)" class="st0" width="3.1" height="8.6"/>
	<path class="st0" d="M88.5,43.7H87v46.9c-2.9,0.6-5,3.3-5,6.3c0,3.5,2.9,6.5,6.5,6.5c3.1,0,5.6-2.1,6.3-5h46.9v-1.7
		C141.7,67.4,117.9,43.7,88.5,43.7z M88.5,100.2c-1.9,0-3.3-1.5-3.3-3.3c0-1.9,1.5-3.3,3.3-3.3s3.3,1.5,3.3,3.3
		C91.8,98.7,90.4,100.2,88.5,100.2z M94.8,95.2c-0.6-2.3-2.5-4.2-4.8-4.8V46.6c26.5,0.8,47.8,22.1,48.6,48.6H94.8z"/>
</g>
</svg>
