<?xml version="1.0" encoding="utf-8"?>
<!-- Generator: Adobe Illustrator 22.0.1, SVG Export Plug-In . SVG Version: 6.00 Build 0)  -->
<svg version="1.1" id="Layer_1" xmlns="http://www.w3.org/2000/svg" xmlns:xlink="http://www.w3.org/1999/xlink" x="0px" y="0px"
	 viewBox="0 0 177 177.2" style="enable-background:new 0 0 177 177.2;" xml:space="preserve">
<style type="text/css">
	.st0{fill:#FFFFFF;}
</style>
<path class="st0" d="M138.9,118.5L95.7,99.6c-4.5-2.5-10.3-1-12.9,3.5c-2.6,4.6-1,10.4,3.5,13c0,0,0,0,0,0l9.1,5.3l-16.2,1.1
	L63.9,96.1c-1.3-2.2-3.4-3.8-5.8-4.4c-0.6-0.2-1.2-0.3-1.8-0.3c-0.5,0-0.9,0-1.4,0c-0.2,0-0.3,0-0.5,0c-0.4,0.1-0.8,0.2-1.2,0.3
	c-0.2,0-0.4,0-0.6,0.1c-0.2,0.1-0.6,0.3-0.9,0.4L51,92.5c-2.5-0.9-5.2-0.8-7.6,0.4c-0.3,0.2-0.7,0.4-1,0.6
	c-4.4,2.9-5.5,8.8-2.7,13.2l0.7,1c-5.2,0.6-9,5.3-8.3,10.5c0.4,3,2.1,5.7,4.8,7.2l24.9,14.4c0.7,0.8,1.5,1.5,2.4,2.1
	c18.7,14.2,76.5,14.5,79,14.5h1.8v-37.1l-1.5-0.2C143.5,119,141.7,118.7,138.9,118.5z M88,113.2c-1.4-0.8-2.4-2.1-2.8-3.6
	c-0.4-1.5-0.2-3.2,0.6-4.5c1.7-2.8,5.3-3.8,8.2-2.2l37.2,16.3l-29.5,1.9L88,113.2z M38.6,122.4c-2.9-1.6-3.8-5.3-2.2-8.1
	c1.1-1.9,3.1-3,5.2-3c0.4,0,0.8,0,1.1,0.1l14.4,21.7L38.6,122.4z M141.5,152.8c-10-0.2-59.2-1.5-75.1-13.8l-0.2-0.1
	c-0.7-0.4-1.3-0.9-1.8-1.5l-0.2-0.3l0,0l0,0l-16-24.1l0,0l-5.3-8.1c-1.8-2.8-1.1-6.5,1.7-8.3c0.4-0.2,0.8-0.4,1.2-0.6l0.2-0.1
	c0.3-0.1,0.7-0.2,1-0.2h0.5H48c-0.6,0.9-1,1.8-1.3,2.8c-0.7,2.4-0.4,4.9,0.8,7.1l17.5,30.3l3.1-1.8l-17.5-30.3
	c-1.4-2.5-0.9-5.5,1.2-7.4l0.8-0.6l0.2-0.2c2.9-1.6,6.5-0.7,8.2,2.2l15.8,27.4l0,0l0.6,1h1.1c6.1-0.4,14.7-1,23.1-1.6h0.1l37-2.6
	c1.2,0,2.2,0.2,2.9,0.2L141.5,152.8z"/>
<path class="st0" d="M58.6,73.2c0,4.3,3.5,7.8,7.8,7.8c1.8,0,3.6-0.6,5-1.8l12.7,6c0,0.3,0,0.5,0,0.8c-0.1,4.3,3.3,7.9,7.6,8
	c4.3,0.1,7.9-3.3,8-7.6c0-0.6,0-1.1-0.1-1.6l0.4,0.8l12.7-6c1.3,1,3,1.6,4.6,1.6c4.3,0,7.8-3.4,7.8-7.7c0-3.6-2.5-6.8-6-7.6V51.1
	c4.2-0.9,6.8-5.1,5.9-9.3c-0.9-4.2-5.1-6.8-9.3-5.9c-1.1,0.3-2.2,0.8-3.1,1.5l-13-8.1c0-0.2,0-0.4,0-0.6c0-4.3-3.5-7.8-7.8-7.8
	c-4.3,0-7.8,3.5-7.8,7.8c0,0.3,0,0.6,0,0.9l-12.8,8c-1.4-1.2-3.1-1.8-4.9-1.8c-4.3,0-7.8,3.4-7.8,7.7c0,3.6,2.5,6.8,6,7.6v14.5
	C61,66.5,58.6,69.6,58.6,73.2z M66.4,77.4c-2.3,0-4.2-1.9-4.3-4.2c0-2.3,1.9-4.2,4.2-4.3c2.3,0,4.2,1.9,4.3,4.2c0,0,0,0,0,0
	C70.6,75.5,68.7,77.4,66.4,77.4z M85.2,81.7l-11.7-5.5c0.4-1,0.6-2,0.6-3.1c0-3.6-2.5-6.7-6-7.6V51.1c2.3-0.5,4.1-2,5.2-4.1
	l10.8,5.7c0.3,3.4,2.7,6.2,5.9,6.9v18.8C88,78.8,86.3,80,85.2,81.7z M91.8,56.2c-2.3,0-4.2-1.9-4.2-4.2c0-2.3,1.9-4.2,4.2-4.2
	c2.3,0,4.2,1.9,4.2,4.2c0,0,0,0,0,0C96,54.3,94.1,56.2,91.8,56.2z M91.8,90.1c-2.3,0-4.2-1.9-4.2-4.2c0-2.3,1.9-4.2,4.2-4.2
	c2.3,0,4.2,1.9,4.2,4.2l0,0C96,88.2,94.1,90.1,91.8,90.1z M98.5,82.1c-1.1-1.9-2.9-3.2-5-3.7V59.6c3-0.7,5.4-3.2,5.9-6.3l10.6-6.8
	c1,2.3,3,4.1,5.4,4.6v14.5c-4.2,0.9-6.8,5.1-5.8,9.2c0.1,0.6,0.3,1.2,0.6,1.7L98.5,82.1z M121.4,73.2c0,2.3-1.9,4.2-4.2,4.2
	s-4.2-1.9-4.2-4.2c0-2.3,1.9-4.2,4.2-4.2l0,0C119.5,68.9,121.4,70.8,121.4,73.2L121.4,73.2z M117.2,39.3c2.3,0,4.2,1.9,4.3,4.2
	c0,2.3-1.9,4.2-4.2,4.3c-2.3,0-4.2-1.9-4.3-4.2c0,0,0,0,0,0C113,41.2,114.8,39.3,117.2,39.3C117.2,39.3,117.2,39.3,117.2,39.3
	L117.2,39.3z M91.8,24.5c2.3,0,4.2,1.9,4.2,4.2s-1.9,4.2-4.2,4.2s-4.2-1.9-4.2-4.2v0C87.5,26.4,89.4,24.5,91.8,24.5z M91.8,36.5
	c2.7,0,5.2-1.4,6.6-3.7l11.8,7.4c-0.4,0.7-0.6,1.6-0.7,2.4l-10.5,6.8c-1.5-4-6-6-10-4.5c-1.9,0.7-3.5,2.2-4.3,4.1l-10.5-5.5
	c0-1-0.2-2.1-0.7-3L85.3,33C86.8,35.1,89.2,36.5,91.8,36.5z M62.1,43.6c0-2.3,1.9-4.2,4.2-4.2c2.3,0,4.2,1.9,4.2,4.2
	s-1.9,4.2-4.2,4.2l0,0C64,47.8,62.1,45.9,62.1,43.6C62.1,43.6,62.1,43.5,62.1,43.6L62.1,43.6z"/>
</svg>
